<mxfile host="app.diagrams.net" agent="Mozilla/5.0 (Macintosh; Intel Mac OS X 10_15_7) AppleWebKit/537.36 (KHTML, like Gecko) Chrome/127.0.0.0 Safari/537.36" version="24.7.7">
  <diagram name="第 1 页" id="J8yL4tMfteV3j7feT69T">
    <mxGraphModel dx="1004" dy="1807" grid="1" gridSize="10" guides="1" tooltips="1" connect="1" arrows="1" fold="1" page="1" pageScale="1" pageWidth="827" pageHeight="1169" math="0" shadow="0">
      <root>
        <mxCell id="0" />
        <mxCell id="1" parent="0" />
        <mxCell id="ts5CFMZNAJqFByiF6o2_-5" style="edgeStyle=orthogonalEdgeStyle;rounded=0;orthogonalLoop=1;jettySize=auto;html=1;entryX=0.5;entryY=0;entryDx=0;entryDy=0;" edge="1" parent="1" source="ts5CFMZNAJqFByiF6o2_-1" target="ts5CFMZNAJqFByiF6o2_-2">
          <mxGeometry relative="1" as="geometry" />
        </mxCell>
        <mxCell id="ts5CFMZNAJqFByiF6o2_-1" value="Client" style="rounded=1;whiteSpace=wrap;html=1;" vertex="1" parent="1">
          <mxGeometry x="280" y="70" width="120" height="60" as="geometry" />
        </mxCell>
        <mxCell id="ts5CFMZNAJqFByiF6o2_-4" style="edgeStyle=orthogonalEdgeStyle;rounded=0;orthogonalLoop=1;jettySize=auto;html=1;" edge="1" parent="1" source="ts5CFMZNAJqFByiF6o2_-2" target="ts5CFMZNAJqFByiF6o2_-3">
          <mxGeometry relative="1" as="geometry" />
        </mxCell>
        <mxCell id="ts5CFMZNAJqFByiF6o2_-2" value="API" style="rounded=1;whiteSpace=wrap;html=1;" vertex="1" parent="1">
          <mxGeometry x="280" y="480" width="120" height="60" as="geometry" />
        </mxCell>
        <mxCell id="ts5CFMZNAJqFByiF6o2_-3" value="DB" style="shape=cylinder3;whiteSpace=wrap;html=1;boundedLbl=1;backgroundOutline=1;size=15;" vertex="1" parent="1">
          <mxGeometry x="310" y="840" width="60" height="80" as="geometry" />
        </mxCell>
        <mxCell id="ts5CFMZNAJqFByiF6o2_-17" style="edgeStyle=orthogonalEdgeStyle;rounded=0;orthogonalLoop=1;jettySize=auto;html=1;entryX=0.5;entryY=0;entryDx=0;entryDy=0;" edge="1" parent="1" source="ts5CFMZNAJqFByiF6o2_-6" target="ts5CFMZNAJqFByiF6o2_-11">
          <mxGeometry relative="1" as="geometry" />
        </mxCell>
        <mxCell id="ts5CFMZNAJqFByiF6o2_-6" value="Component UI" style="rounded=1;whiteSpace=wrap;html=1;" vertex="1" parent="1">
          <mxGeometry x="610" y="70" width="120" height="60" as="geometry" />
        </mxCell>
        <mxCell id="ts5CFMZNAJqFByiF6o2_-16" style="edgeStyle=orthogonalEdgeStyle;rounded=0;orthogonalLoop=1;jettySize=auto;html=1;entryX=1;entryY=0.5;entryDx=0;entryDy=0;" edge="1" parent="1" source="ts5CFMZNAJqFByiF6o2_-7" target="ts5CFMZNAJqFByiF6o2_-6">
          <mxGeometry relative="1" as="geometry">
            <Array as="points">
              <mxPoint x="780" y="330" />
              <mxPoint x="780" y="100" />
            </Array>
          </mxGeometry>
        </mxCell>
        <mxCell id="ts5CFMZNAJqFByiF6o2_-7" value="Store" style="ellipse;whiteSpace=wrap;html=1;aspect=fixed;" vertex="1" parent="1">
          <mxGeometry x="630" y="290" width="80" height="80" as="geometry" />
        </mxCell>
        <mxCell id="ts5CFMZNAJqFByiF6o2_-14" style="edgeStyle=orthogonalEdgeStyle;rounded=0;orthogonalLoop=1;jettySize=auto;html=1;entryX=0.5;entryY=1;entryDx=0;entryDy=0;" edge="1" parent="1" source="ts5CFMZNAJqFByiF6o2_-9" target="ts5CFMZNAJqFByiF6o2_-10">
          <mxGeometry relative="1" as="geometry" />
        </mxCell>
        <mxCell id="ts5CFMZNAJqFByiF6o2_-9" value="API" style="rounded=1;whiteSpace=wrap;html=1;" vertex="1" parent="1">
          <mxGeometry x="610" y="640" width="120" height="60" as="geometry" />
        </mxCell>
        <mxCell id="ts5CFMZNAJqFByiF6o2_-15" style="edgeStyle=orthogonalEdgeStyle;rounded=0;orthogonalLoop=1;jettySize=auto;html=1;" edge="1" parent="1" source="ts5CFMZNAJqFByiF6o2_-10" target="ts5CFMZNAJqFByiF6o2_-7">
          <mxGeometry relative="1" as="geometry" />
        </mxCell>
        <mxCell id="ts5CFMZNAJqFByiF6o2_-10" value="DTOs Convert" style="rounded=1;whiteSpace=wrap;html=1;" vertex="1" parent="1">
          <mxGeometry x="610" y="480" width="120" height="60" as="geometry" />
        </mxCell>
        <mxCell id="ts5CFMZNAJqFByiF6o2_-12" style="edgeStyle=orthogonalEdgeStyle;rounded=0;orthogonalLoop=1;jettySize=auto;html=1;entryX=0;entryY=0.5;entryDx=0;entryDy=0;" edge="1" parent="1" source="ts5CFMZNAJqFByiF6o2_-11" target="ts5CFMZNAJqFByiF6o2_-9">
          <mxGeometry relative="1" as="geometry">
            <Array as="points">
              <mxPoint x="560" y="220" />
              <mxPoint x="560" y="670" />
            </Array>
          </mxGeometry>
        </mxCell>
        <mxCell id="ts5CFMZNAJqFByiF6o2_-11" value="Service" style="rounded=1;whiteSpace=wrap;html=1;" vertex="1" parent="1">
          <mxGeometry x="610" y="190" width="120" height="60" as="geometry" />
        </mxCell>
        <mxCell id="ts5CFMZNAJqFByiF6o2_-13" style="edgeStyle=orthogonalEdgeStyle;rounded=0;orthogonalLoop=1;jettySize=auto;html=1;entryX=1;entryY=0;entryDx=0;entryDy=52.5;entryPerimeter=0;" edge="1" parent="1" source="ts5CFMZNAJqFByiF6o2_-9" target="ts5CFMZNAJqFByiF6o2_-3">
          <mxGeometry relative="1" as="geometry">
            <Array as="points">
              <mxPoint x="670" y="893" />
              <mxPoint x="490" y="893" />
            </Array>
          </mxGeometry>
        </mxCell>
        <mxCell id="ts5CFMZNAJqFByiF6o2_-18" value="" style="endArrow=none;dashed=1;html=1;dashPattern=1 3;strokeWidth=2;rounded=0;" edge="1" parent="1">
          <mxGeometry width="50" height="50" relative="1" as="geometry">
            <mxPoint x="480" y="1010" as="sourcePoint" />
            <mxPoint x="480" y="-10" as="targetPoint" />
          </mxGeometry>
        </mxCell>
      </root>
    </mxGraphModel>
  </diagram>
</mxfile>
